<svg width="48" height="48" viewBox="0 0 48 48" fill="none" xmlns="http://www.w3.org/2000/svg">
<path opacity="0.3" fill-rule="evenodd" clip-rule="evenodd" d="M24 44C35.0457 44 44 35.0457 44 24C44 12.9543 35.0457 4 24 4C12.9543 4 4 12.9543 4 24C4 35.0457 12.9543 44 24 44Z" fill="#F8F9FA"/>
<path fill-rule="evenodd" clip-rule="evenodd" d="M14.8786 16.293C14.4881 16.6836 14.4881 17.3167 14.8786 17.7073L21.2426 24.0712L14.8786 30.4352C14.4881 30.8257 14.4881 31.4589 14.8786 31.8494L16.2928 33.2636C16.6833 33.6541 17.3165 33.6541 17.707 33.2636L24.071 26.8996L30.435 33.2636C30.8255 33.6541 31.4587 33.6541 31.8492 33.2636L33.2634 31.8494C33.6539 31.4589 33.6539 30.8257 33.2634 30.4352L26.8994 24.0712L33.2634 17.7073C33.6539 17.3167 33.6539 16.6836 33.2634 16.293L31.8491 14.8788C31.4586 14.4883 30.8255 14.4883 30.4349 14.8788L24.071 21.2428L17.7071 14.8788C17.3165 14.4883 16.6834 14.4883 16.2929 14.8788L14.8786 16.293Z" fill="#F8F9FA"/>
</svg>
