<svg width="176" height="51" viewBox="0 0 176 51" fill="none" xmlns="http://www.w3.org/2000/svg">
<path d="M57.8644 39.4293C57.3023 39.4293 56.8467 39.2548 56.4978 38.9059C56.1683 38.5569 56.0035 38.1014 56.0035 37.5392V20.4706C56.0035 19.9085 56.1683 19.4626 56.4978 19.1331C56.8467 18.7841 57.3023 18.6097 57.8644 18.6097C58.446 18.6097 58.9015 18.7841 59.2311 19.1331C59.58 19.4626 59.7545 19.9085 59.7545 20.4706V37.5392C59.7545 38.1014 59.58 38.5569 59.2311 38.9059C58.9015 39.2548 58.446 39.4293 57.8644 39.4293Z" fill="#212529"/>
<path d="M71.829 24.6869C73.5349 24.6869 74.8046 25.1715 75.6381 26.1408C76.4717 27.11 76.8885 28.5736 76.8885 30.5315V37.6846C76.8885 38.2274 76.7237 38.6539 76.3942 38.964C76.084 39.2742 75.6478 39.4293 75.0857 39.4293C74.5235 39.4293 74.0776 39.2742 73.7481 38.964C73.4185 38.6539 73.2538 38.2274 73.2538 37.6846V30.735C73.2538 29.6301 73.0405 28.8256 72.6141 28.3216C72.207 27.8176 71.5576 27.5656 70.6659 27.5656C69.6191 27.5656 68.7758 27.8951 68.1361 28.5542C67.5158 29.2133 67.2056 30.0953 67.2056 31.2003V37.6846C67.2056 38.2274 67.0409 38.6539 66.7113 38.964C66.3818 39.2742 65.9359 39.4293 65.3737 39.4293C64.8116 39.4293 64.3657 39.2742 64.0362 38.964C63.726 38.6539 63.5709 38.2274 63.5709 37.6846V26.4316C63.5709 25.9275 63.7357 25.5205 64.0652 25.2103C64.3948 24.9001 64.8407 24.7451 65.4028 24.7451C65.9068 24.7451 66.3139 24.9001 66.6241 25.2103C66.9536 25.5011 67.1184 25.8888 67.1184 26.3734V27.1585C67.603 26.3637 68.2524 25.7531 69.0666 25.3266C69.8808 24.9001 70.8016 24.6869 71.829 24.6869Z" fill="#212529"/>
<path d="M87.6751 36.725C88.6444 36.7832 89.129 37.2194 89.129 38.0335C89.129 38.4988 88.9352 38.8574 88.5475 39.1094C88.1791 39.342 87.6461 39.4389 86.9482 39.4002L86.1631 39.342C82.9064 39.1094 81.2781 37.3647 81.2781 34.108V27.7691H79.8242C79.3008 27.7691 78.8937 27.6528 78.6029 27.4202C78.3315 27.1876 78.1958 26.8483 78.1958 26.4025C78.1958 25.9566 78.3315 25.6174 78.6029 25.3848C78.8937 25.1521 79.3008 25.0358 79.8242 25.0358H81.2781V22.3607C81.2781 21.8373 81.4428 21.4205 81.7724 21.1104C82.1019 20.8002 82.5478 20.6451 83.1099 20.6451C83.6527 20.6451 84.0889 20.8002 84.4184 21.1104C84.748 21.4205 84.9128 21.8373 84.9128 22.3607V25.0358H87.3844C87.9078 25.0358 88.3052 25.1521 88.5765 25.3848C88.8673 25.6174 89.0127 25.9566 89.0127 26.4025C89.0127 26.8483 88.8673 27.1876 88.5765 27.4202C88.3052 27.6528 87.9078 27.7691 87.3844 27.7691H84.9128V34.3697C84.9128 35.8042 85.5719 36.57 86.89 36.6669L87.6751 36.725Z" fill="#212529"/>
<path d="M101.985 35.3584C102.315 35.3584 102.577 35.4844 102.771 35.7364C102.984 35.9884 103.09 36.3276 103.09 36.7541C103.09 37.3551 102.732 37.8591 102.014 38.2661C101.355 38.6345 100.609 38.9349 99.7755 39.1676C98.942 39.3808 98.1472 39.4874 97.3911 39.4874C95.1037 39.4874 93.2912 38.8283 91.9536 37.5101C90.6161 36.1919 89.9473 34.3891 89.9473 32.1017C89.9473 30.6478 90.2381 29.3587 90.8196 28.2344C91.4012 27.11 92.2153 26.2377 93.2621 25.6174C94.3283 24.9971 95.5302 24.6869 96.8678 24.6869C98.1472 24.6869 99.2618 24.968 100.212 25.5302C101.162 26.0923 101.898 26.8871 102.422 27.9145C102.945 28.9419 103.207 30.1535 103.207 31.5492C103.207 32.3828 102.838 32.7996 102.102 32.7996H93.5238C93.6401 34.1371 94.0181 35.1258 94.6579 35.7655C95.2976 36.3858 96.228 36.696 97.4493 36.696C98.0696 36.696 98.6124 36.6184 99.0777 36.4633C99.5623 36.3083 100.105 36.095 100.706 35.8236C101.288 35.5135 101.714 35.3584 101.985 35.3584ZM96.955 27.2457C95.9663 27.2457 95.1716 27.5559 94.5706 28.1762C93.9891 28.7965 93.6401 29.6883 93.5238 30.8514H100.095C100.057 29.6689 99.7658 28.7772 99.223 28.1762C98.6803 27.5559 97.9242 27.2457 96.955 27.2457Z" fill="#212529"/>
<path d="M113.827 24.7451C114.331 24.7063 114.729 24.8129 115.019 25.0649C115.31 25.3169 115.456 25.6949 115.456 26.1989C115.456 26.7223 115.33 27.11 115.078 27.362C114.826 27.614 114.37 27.7788 113.711 27.8564L112.839 27.9436C111.695 28.0599 110.852 28.4476 110.309 29.1067C109.785 29.7658 109.524 30.5897 109.524 31.5783V37.6846C109.524 38.2468 109.349 38.6829 109 38.9931C108.651 39.2839 108.215 39.4293 107.692 39.4293C107.168 39.4293 106.732 39.2839 106.383 38.9931C106.054 38.6829 105.889 38.2468 105.889 37.6846V26.4316C105.889 25.8888 106.054 25.472 106.383 25.1812C106.732 24.8904 107.159 24.7451 107.663 24.7451C108.167 24.7451 108.574 24.8904 108.884 25.1812C109.194 25.4526 109.349 25.85 109.349 26.3734V27.5365C109.718 26.6836 110.26 26.0245 110.978 25.5592C111.714 25.094 112.528 24.8323 113.42 24.7741L113.827 24.7451Z" fill="#212529"/>
<path d="M124.988 24.6869C126.694 24.6869 127.963 25.1715 128.797 26.1408C129.63 27.11 130.047 28.5736 130.047 30.5315V37.6846C130.047 38.2274 129.882 38.6539 129.553 38.964C129.243 39.2742 128.806 39.4293 128.244 39.4293C127.682 39.4293 127.236 39.2742 126.907 38.964C126.577 38.6539 126.412 38.2274 126.412 37.6846V30.735C126.412 29.6301 126.199 28.8256 125.773 28.3216C125.366 27.8176 124.716 27.5656 123.825 27.5656C122.778 27.5656 121.934 27.8951 121.295 28.5542C120.674 29.2133 120.364 30.0953 120.364 31.2003V37.6846C120.364 38.2274 120.2 38.6539 119.87 38.964C119.54 39.2742 119.095 39.4293 118.532 39.4293C117.97 39.4293 117.524 39.2742 117.195 38.964C116.885 38.6539 116.73 38.2274 116.73 37.6846V26.4316C116.73 25.9275 116.894 25.5205 117.224 25.2103C117.553 24.9001 117.999 24.7451 118.561 24.7451C119.065 24.7451 119.473 24.9001 119.783 25.2103C120.112 25.5011 120.277 25.8888 120.277 26.3734V27.1585C120.762 26.3637 121.411 25.7531 122.225 25.3266C123.039 24.9001 123.96 24.6869 124.988 24.6869Z" fill="#212529"/>
<path d="M139.613 24.6869C141.59 24.6869 143.053 25.1812 144.003 26.1699C144.973 27.1391 145.457 28.6221 145.457 30.6187V37.7137C145.457 38.2371 145.302 38.6539 144.992 38.964C144.682 39.2548 144.255 39.4002 143.712 39.4002C143.208 39.4002 142.792 39.2451 142.462 38.9349C142.152 38.6248 141.997 38.2177 141.997 37.7137V37.074C141.667 37.83 141.144 38.4212 140.427 38.8477C139.729 39.2742 138.915 39.4874 137.984 39.4874C137.034 39.4874 136.172 39.2936 135.396 38.9059C134.621 38.5182 134.01 37.9851 133.564 37.3066C133.119 36.6281 132.896 35.8721 132.896 35.0385C132.896 33.9917 133.157 33.1679 133.681 32.5669C134.223 31.966 135.096 31.5298 136.298 31.2584C137.5 30.9871 139.157 30.8514 141.27 30.8514H141.997V30.1826C141.997 29.2327 141.793 28.5445 141.386 28.1181C140.979 27.6722 140.32 27.4493 139.409 27.4493C138.847 27.4493 138.275 27.5365 137.693 27.711C137.112 27.8661 136.424 28.0987 135.629 28.4088C135.125 28.6608 134.757 28.7868 134.524 28.7868C134.175 28.7868 133.884 28.6608 133.652 28.4088C133.438 28.1568 133.332 27.8273 133.332 27.4202C133.332 27.0907 133.409 26.8096 133.564 26.5769C133.739 26.3249 134.02 26.0923 134.408 25.8791C135.086 25.5108 135.891 25.22 136.821 25.0068C137.771 24.7935 138.701 24.6869 139.613 24.6869ZM138.711 36.8704C139.68 36.8704 140.465 36.5506 141.066 35.9109C141.687 35.2518 141.997 34.4085 141.997 33.3811V32.7705H141.473C140.175 32.7705 139.167 32.8286 138.449 32.9449C137.732 33.0613 137.218 33.2648 136.908 33.5556C136.598 33.8464 136.443 34.2437 136.443 34.7478C136.443 35.3681 136.656 35.8818 137.083 36.2889C137.529 36.6766 138.071 36.8704 138.711 36.8704Z" fill="#212529"/>
<path d="M154.007 39.4874C151.894 39.4874 150.188 39.0706 148.889 38.2371C148.269 37.8688 147.959 37.3454 147.959 36.6669C147.959 36.2792 148.066 35.969 148.279 35.7364C148.492 35.4844 148.754 35.3584 149.064 35.3584C149.393 35.3584 149.849 35.5135 150.431 35.8236C151.051 36.1144 151.613 36.3373 152.117 36.4924C152.64 36.6475 153.3 36.725 154.094 36.725C154.908 36.725 155.539 36.5893 155.984 36.3179C156.45 36.0466 156.682 35.6686 156.682 35.1839C156.682 34.8544 156.585 34.5927 156.391 34.3988C156.217 34.205 155.887 34.0305 155.403 33.8754C154.938 33.701 154.22 33.5071 153.251 33.2939C151.526 32.9449 150.285 32.4506 149.529 31.8109C148.793 31.1712 148.424 30.2892 148.424 29.1649C148.424 28.3119 148.676 27.5462 149.18 26.8677C149.684 26.1699 150.372 25.6368 151.245 25.2685C152.136 24.8808 153.144 24.6869 154.269 24.6869C155.083 24.6869 155.868 24.7935 156.624 25.0068C157.38 25.2006 158.059 25.4914 158.66 25.8791C159.28 26.2668 159.59 26.7805 159.59 27.4202C159.59 27.8079 159.483 28.1374 159.27 28.4088C159.057 28.6608 158.795 28.7868 158.485 28.7868C158.272 28.7868 158.059 28.7481 157.845 28.6705C157.651 28.5736 157.399 28.4379 157.089 28.2634C156.527 27.9727 156.043 27.7594 155.635 27.6237C155.228 27.4687 154.724 27.3911 154.123 27.3911C153.406 27.3911 152.834 27.5365 152.408 27.8273C152.001 28.1181 151.797 28.5155 151.797 29.0195C151.797 29.5041 152.01 29.8724 152.437 30.1244C152.863 30.3764 153.687 30.6284 154.908 30.8804C156.207 31.1518 157.225 31.462 157.962 31.8109C158.698 32.1599 159.222 32.596 159.532 33.1194C159.861 33.6428 160.026 34.3116 160.026 35.1258C160.026 36.444 159.474 37.5004 158.369 38.2952C157.283 39.09 155.829 39.4874 154.007 39.4874Z" fill="#212529"/>
<path d="M170.999 24.6869C174.333 24.6869 176 26.6351 176 30.5315V37.6846C176 38.2274 175.835 38.6539 175.506 38.964C175.196 39.2742 174.759 39.4293 174.197 39.4293C173.635 39.4293 173.189 39.2742 172.86 38.964C172.53 38.6539 172.365 38.2274 172.365 37.6846V30.5315C172.365 29.5041 172.152 28.7578 171.726 28.2925C171.318 27.8079 170.669 27.5656 169.777 27.5656C168.731 27.5656 167.887 27.8951 167.248 28.5542C166.627 29.2133 166.317 30.0953 166.317 31.2003V37.6846C166.317 38.2274 166.152 38.6539 165.823 38.964C165.493 39.2742 165.047 39.4293 164.485 39.4293C163.923 39.4293 163.477 39.2742 163.148 38.964C162.838 38.6539 162.682 38.2274 162.682 37.6846V20.2962C162.682 19.7922 162.847 19.3851 163.177 19.0749C163.526 18.7648 163.972 18.6097 164.514 18.6097C165.057 18.6097 165.493 18.7551 165.823 19.0458C166.152 19.3366 166.317 19.734 166.317 20.238V27.0131C166.802 26.2571 167.441 25.6852 168.236 25.2975C169.05 24.8904 169.971 24.6869 170.999 24.6869Z" fill="#212529"/>
<path d="M40.7087 29.8045C40.7087 41.0459 31.5957 50.1589 20.3543 50.1589C9.11295 50.1589 0 41.0459 0 29.8045C0 18.5631 9.11295 9.4502 20.3543 9.4502C31.5957 9.4502 40.7087 18.5631 40.7087 29.8045Z" fill="url(#paint0_linear)"/>
<path d="M30.5315 29.8045C30.5315 35.4252 25.975 39.9817 20.3544 39.9817C14.7337 39.9817 10.1772 35.4252 10.1772 29.8045C10.1772 24.1839 14.7337 19.6274 20.3544 19.6274C25.975 19.6274 30.5315 24.1839 30.5315 29.8045Z" fill="white"/>
<path d="M42.1625 5.81552C42.1625 9.02735 39.5588 11.631 36.347 11.631C33.1352 11.631 30.5315 9.02735 30.5315 5.81552C30.5315 2.6037 33.1352 0 36.347 0C39.5588 0 42.1625 2.6037 42.1625 5.81552Z" fill="#08E9BC"/>
<defs>
<linearGradient id="paint0_linear" x1="6.17899" y1="45.4337" x2="37.8009" y2="3.99814" gradientUnits="userSpaceOnUse">
<stop stop-color="#01B68D"/>
<stop offset="1" stop-color="#0AF8CA"/>
</linearGradient>
</defs>
</svg>
