<svg width="176" height="51" viewBox="0 0 176 51" fill="none" xmlns="http://www.w3.org/2000/svg">
<path d="M57.8644 39.4292C57.3023 39.4292 56.8467 39.2548 56.4978 38.9058C56.1683 38.5569 56.0035 38.1013 56.0035 37.5392V20.4706C56.0035 19.9085 56.1683 19.4626 56.4978 19.133C56.8467 18.7841 57.3023 18.6096 57.8644 18.6096C58.446 18.6096 58.9015 18.7841 59.2311 19.133C59.58 19.4626 59.7545 19.9085 59.7545 20.4706V37.5392C59.7545 38.1013 59.58 38.5569 59.2311 38.9058C58.9015 39.2548 58.446 39.4292 57.8644 39.4292Z" fill="#F8F9FA"/>
<path d="M71.829 24.6869C73.5349 24.6869 74.8046 25.1715 75.6381 26.1408C76.4717 27.11 76.8885 28.5736 76.8885 30.5315V37.6846C76.8885 38.2273 76.7237 38.6538 76.3942 38.964C76.084 39.2741 75.6478 39.4292 75.0857 39.4292C74.5235 39.4292 74.0776 39.2741 73.7481 38.964C73.4185 38.6538 73.2538 38.2273 73.2538 37.6846V30.735C73.2538 29.6301 73.0405 28.8256 72.6141 28.3216C72.207 27.8176 71.5576 27.5656 70.6659 27.5656C69.6191 27.5656 68.7758 27.8951 68.1361 28.5542C67.5158 29.2133 67.2056 30.0953 67.2056 31.2003V37.6846C67.2056 38.2273 67.0409 38.6538 66.7113 38.964C66.3818 39.2741 65.9359 39.4292 65.3737 39.4292C64.8116 39.4292 64.3657 39.2741 64.0362 38.964C63.726 38.6538 63.5709 38.2273 63.5709 37.6846V26.4315C63.5709 25.9275 63.7357 25.5204 64.0652 25.2103C64.3948 24.9001 64.8407 24.745 65.4028 24.745C65.9068 24.745 66.3139 24.9001 66.6241 25.2103C66.9536 25.501 67.1184 25.8887 67.1184 26.3734V27.1585C67.603 26.3637 68.2524 25.7531 69.0666 25.3266C69.8808 24.9001 70.8016 24.6869 71.829 24.6869Z" fill="#F8F9FA"/>
<path d="M87.6751 36.725C88.6444 36.7832 89.129 37.2193 89.129 38.0335C89.129 38.4987 88.9352 38.8574 88.5475 39.1094C88.1791 39.342 87.6461 39.4389 86.9482 39.4001L86.1631 39.342C82.9064 39.1094 81.2781 37.3647 81.2781 34.108V27.7691H79.8242C79.3008 27.7691 78.8937 27.6528 78.6029 27.4202C78.3315 27.1875 78.1958 26.8483 78.1958 26.4025C78.1958 25.9566 78.3315 25.6174 78.6029 25.3847C78.8937 25.1521 79.3008 25.0358 79.8242 25.0358H81.2781V22.3607C81.2781 21.8373 81.4428 21.4205 81.7724 21.1103C82.1019 20.8002 82.5478 20.6451 83.1099 20.6451C83.6527 20.6451 84.0889 20.8002 84.4184 21.1103C84.748 21.4205 84.9128 21.8373 84.9128 22.3607V25.0358H87.3844C87.9078 25.0358 88.3052 25.1521 88.5765 25.3847C88.8673 25.6174 89.0127 25.9566 89.0127 26.4025C89.0127 26.8483 88.8673 27.1875 88.5765 27.4202C88.3052 27.6528 87.9078 27.7691 87.3844 27.7691H84.9128V34.3697C84.9128 35.8042 85.5719 36.5699 86.89 36.6668L87.6751 36.725Z" fill="#F8F9FA"/>
<path d="M101.985 35.3584C102.315 35.3584 102.577 35.4844 102.771 35.7364C102.984 35.9884 103.09 36.3276 103.09 36.7541C103.09 37.355 102.732 37.859 102.014 38.2661C101.355 38.6344 100.609 38.9349 99.7755 39.1675C98.942 39.3808 98.1472 39.4874 97.3911 39.4874C95.1037 39.4874 93.2912 38.8283 91.9536 37.5101C90.6161 36.1919 89.9473 34.3891 89.9473 32.1017C89.9473 30.6478 90.2381 29.3587 90.8196 28.2343C91.4012 27.11 92.2153 26.2377 93.2621 25.6174C94.3283 24.997 95.5302 24.6869 96.8678 24.6869C98.1472 24.6869 99.2618 24.968 100.212 25.5301C101.162 26.0923 101.898 26.8871 102.422 27.9145C102.945 28.9419 103.207 30.1535 103.207 31.5492C103.207 32.3827 102.838 32.7995 102.102 32.7995H93.5238C93.6401 34.1371 94.0181 35.1257 94.6579 35.7654C95.2976 36.3858 96.228 36.6959 97.4493 36.6959C98.0696 36.6959 98.6124 36.6184 99.0777 36.4633C99.5623 36.3082 100.105 36.095 100.706 35.8236C101.288 35.5134 101.714 35.3584 101.985 35.3584ZM96.955 27.2457C95.9663 27.2457 95.1716 27.5559 94.5706 28.1762C93.9891 28.7965 93.6401 29.6882 93.5238 30.8513H100.095C100.057 29.6688 99.7658 28.7771 99.223 28.1762C98.6803 27.5559 97.9242 27.2457 96.955 27.2457Z" fill="#F8F9FA"/>
<path d="M113.827 24.745C114.331 24.7063 114.729 24.8129 115.019 25.0649C115.31 25.3169 115.456 25.6949 115.456 26.1989C115.456 26.7223 115.33 27.11 115.078 27.362C114.826 27.614 114.37 27.7788 113.711 27.8563L112.839 27.9436C111.695 28.0599 110.852 28.4476 110.309 29.1067C109.785 29.7658 109.524 30.5896 109.524 31.5783V37.6846C109.524 38.2467 109.349 38.6829 109 38.9931C108.651 39.2838 108.215 39.4292 107.692 39.4292C107.168 39.4292 106.732 39.2838 106.383 38.9931C106.054 38.6829 105.889 38.2467 105.889 37.6846V26.4315C105.889 25.8887 106.054 25.472 106.383 25.1812C106.732 24.8904 107.159 24.745 107.663 24.745C108.167 24.745 108.574 24.8904 108.884 25.1812C109.194 25.4526 109.349 25.85 109.349 26.3734V27.5365C109.718 26.6835 110.26 26.0244 110.978 25.5592C111.714 25.094 112.528 24.8323 113.42 24.7741L113.827 24.745Z" fill="#F8F9FA"/>
<path d="M124.988 24.6869C126.694 24.6869 127.963 25.1715 128.797 26.1408C129.63 27.11 130.047 28.5736 130.047 30.5315V37.6846C130.047 38.2273 129.882 38.6538 129.553 38.964C129.243 39.2741 128.806 39.4292 128.244 39.4292C127.682 39.4292 127.236 39.2741 126.907 38.964C126.577 38.6538 126.412 38.2273 126.412 37.6846V30.735C126.412 29.6301 126.199 28.8256 125.773 28.3216C125.366 27.8176 124.716 27.5656 123.825 27.5656C122.778 27.5656 121.934 27.8951 121.295 28.5542C120.674 29.2133 120.364 30.0953 120.364 31.2003V37.6846C120.364 38.2273 120.2 38.6538 119.87 38.964C119.54 39.2741 119.095 39.4292 118.532 39.4292C117.97 39.4292 117.524 39.2741 117.195 38.964C116.885 38.6538 116.73 38.2273 116.73 37.6846V26.4315C116.73 25.9275 116.894 25.5204 117.224 25.2103C117.553 24.9001 117.999 24.745 118.561 24.745C119.065 24.745 119.473 24.9001 119.783 25.2103C120.112 25.501 120.277 25.8887 120.277 26.3734V27.1585C120.762 26.3637 121.411 25.7531 122.225 25.3266C123.039 24.9001 123.96 24.6869 124.988 24.6869Z" fill="#F8F9FA"/>
<path d="M139.613 24.6869C141.59 24.6869 143.053 25.1812 144.003 26.1698C144.973 27.1391 145.457 28.622 145.457 30.6187V37.7136C145.457 38.237 145.302 38.6538 144.992 38.964C144.682 39.2548 144.255 39.4001 143.712 39.4001C143.208 39.4001 142.792 39.2451 142.462 38.9349C142.152 38.6247 141.997 38.2177 141.997 37.7136V37.0739C141.667 37.83 141.144 38.4212 140.427 38.8477C139.729 39.2741 138.915 39.4874 137.984 39.4874C137.034 39.4874 136.172 39.2935 135.396 38.9058C134.621 38.5181 134.01 37.985 133.564 37.3066C133.119 36.6281 132.896 35.8721 132.896 35.0385C132.896 33.9917 133.157 33.1678 133.681 32.5669C134.223 31.966 135.096 31.5298 136.298 31.2584C137.5 30.987 139.157 30.8513 141.27 30.8513H141.997V30.1825C141.997 29.2327 141.793 28.5445 141.386 28.118C140.979 27.6722 140.32 27.4492 139.409 27.4492C138.847 27.4492 138.275 27.5365 137.693 27.7109C137.112 27.866 136.424 28.0986 135.629 28.4088C135.125 28.6608 134.757 28.7868 134.524 28.7868C134.175 28.7868 133.884 28.6608 133.652 28.4088C133.438 28.1568 133.332 27.8273 133.332 27.4202C133.332 27.0906 133.409 26.8095 133.564 26.5769C133.739 26.3249 134.02 26.0923 134.408 25.8791C135.086 25.5107 135.891 25.22 136.821 25.0067C137.771 24.7935 138.701 24.6869 139.613 24.6869ZM138.711 36.8704C139.68 36.8704 140.465 36.5505 141.066 35.9108C141.687 35.2517 141.997 34.4085 141.997 33.3811V32.7704H141.473C140.175 32.7704 139.167 32.8286 138.449 32.9449C137.732 33.0612 137.218 33.2648 136.908 33.5555C136.598 33.8463 136.443 34.2437 136.443 34.7477C136.443 35.368 136.656 35.8818 137.083 36.2888C137.529 36.6765 138.071 36.8704 138.711 36.8704Z" fill="#F8F9FA"/>
<path d="M154.007 39.4874C151.894 39.4874 150.188 39.0706 148.889 38.237C148.269 37.8687 147.959 37.3453 147.959 36.6668C147.959 36.2791 148.066 35.969 148.279 35.7364C148.492 35.4844 148.754 35.3584 149.064 35.3584C149.393 35.3584 149.849 35.5134 150.431 35.8236C151.051 36.1144 151.613 36.3373 152.117 36.4924C152.64 36.6475 153.3 36.725 154.094 36.725C154.908 36.725 155.539 36.5893 155.984 36.3179C156.45 36.0465 156.682 35.6685 156.682 35.1839C156.682 34.8543 156.585 34.5926 156.391 34.3988C156.217 34.2049 155.887 34.0305 155.403 33.8754C154.938 33.7009 154.22 33.5071 153.251 33.2938C151.526 32.9449 150.285 32.4506 149.529 31.8109C148.793 31.1712 148.424 30.2892 148.424 29.1648C148.424 28.3119 148.676 27.5462 149.18 26.8677C149.684 26.1698 150.372 25.6367 151.245 25.2684C152.136 24.8807 153.144 24.6869 154.269 24.6869C155.083 24.6869 155.868 24.7935 156.624 25.0067C157.38 25.2006 158.059 25.4914 158.66 25.8791C159.28 26.2668 159.59 26.7805 159.59 27.4202C159.59 27.8079 159.483 28.1374 159.27 28.4088C159.057 28.6608 158.795 28.7868 158.485 28.7868C158.272 28.7868 158.059 28.748 157.845 28.6705C157.651 28.5736 157.399 28.4379 157.089 28.2634C156.527 27.9726 156.043 27.7594 155.635 27.6237C155.228 27.4686 154.724 27.3911 154.123 27.3911C153.406 27.3911 152.834 27.5365 152.408 27.8273C152.001 28.118 151.797 28.5154 151.797 29.0194C151.797 29.5041 152.01 29.8724 152.437 30.1244C152.863 30.3764 153.687 30.6284 154.908 30.8804C156.207 31.1518 157.225 31.462 157.962 31.8109C158.698 32.1598 159.222 32.596 159.532 33.1194C159.861 33.6428 160.026 34.3116 160.026 35.1257C160.026 36.4439 159.474 37.5004 158.369 38.2952C157.283 39.09 155.829 39.4874 154.007 39.4874Z" fill="#F8F9FA"/>
<path d="M170.999 24.6869C174.333 24.6869 176 26.6351 176 30.5315V37.6846C176 38.2273 175.835 38.6538 175.506 38.964C175.196 39.2741 174.759 39.4292 174.197 39.4292C173.635 39.4292 173.189 39.2741 172.86 38.964C172.53 38.6538 172.365 38.2273 172.365 37.6846V30.5315C172.365 29.5041 172.152 28.7577 171.726 28.2925C171.318 27.8079 170.669 27.5656 169.777 27.5656C168.731 27.5656 167.887 27.8951 167.248 28.5542C166.627 29.2133 166.317 30.0953 166.317 31.2003V37.6846C166.317 38.2273 166.152 38.6538 165.823 38.964C165.493 39.2741 165.047 39.4292 164.485 39.4292C163.923 39.4292 163.477 39.2741 163.148 38.964C162.838 38.6538 162.682 38.2273 162.682 37.6846V20.2962C162.682 19.7921 162.847 19.3851 163.177 19.0749C163.526 18.7647 163.972 18.6096 164.514 18.6096C165.057 18.6096 165.493 18.755 165.823 19.0458C166.152 19.3366 166.317 19.734 166.317 20.238V27.0131C166.802 26.2571 167.441 25.6852 168.236 25.2975C169.05 24.8904 169.971 24.6869 170.999 24.6869Z" fill="#F8F9FA"/>
<path d="M40.7087 29.8046C40.7087 41.0459 31.5957 50.1589 20.3543 50.1589C9.11295 50.1589 0 41.0459 0 29.8046C0 18.5632 9.11295 9.45023 20.3543 9.45023C31.5957 9.45023 40.7087 18.5632 40.7087 29.8046Z" fill="url(#paint0_linear)"/>
<path d="M30.5315 29.8046C30.5315 35.4253 25.975 39.9818 20.3544 39.9818C14.7337 39.9818 10.1772 35.4253 10.1772 29.8046C10.1772 24.1839 14.7337 19.6274 20.3544 19.6274C25.975 19.6274 30.5315 24.1839 30.5315 29.8046Z" fill="#05D3A8"/>
<path d="M42.1625 5.81552C42.1625 9.02735 39.5588 11.631 36.347 11.631C33.1352 11.631 30.5315 9.02735 30.5315 5.81552C30.5315 2.6037 33.1352 0 36.347 0C39.5588 0 42.1625 2.6037 42.1625 5.81552Z" fill="#E0E0E0"/>
<defs>
<linearGradient id="paint0_linear" x1="-1.21321e-06" y1="50.1589" x2="47.6101" y2="39.0631" gradientUnits="userSpaceOnUse">
<stop stop-color="#C2C2C2"/>
<stop offset="1" stop-color="#E0E0E0"/>
</linearGradient>
</defs>
</svg>
