<svg width="28" height="28" viewBox="0 0 28 28" fill="none" xmlns="http://www.w3.org/2000/svg">
<path d="M3.5 7H5.83333H24.5" stroke="#ADB5BD" stroke-width="2" stroke-linecap="round" stroke-linejoin="round"/>
<path d="M23.1666 6.99998C23.1666 6.4477 22.7189 5.99998 22.1666 5.99998C21.6144 5.99998 21.1666 6.4477 21.1666 6.99998H23.1666ZM6.83331 6.99998C6.83331 6.4477 6.3856 5.99998 5.83331 5.99998C5.28103 5.99998 4.83331 6.4477 4.83331 6.99998H6.83331ZM8.33331 6.99998C8.33331 7.55226 8.78103 7.99998 9.33331 7.99998C9.8856 7.99998 10.3333 7.55226 10.3333 6.99998H8.33331ZM17.6666 6.99998C17.6666 7.55226 18.1144 7.99998 18.6666 7.99998C19.2189 7.99998 19.6666 7.55226 19.6666 6.99998H17.6666ZM21.1666 6.99998V23.3333H23.1666V6.99998H21.1666ZM21.1666 23.3333C21.1666 24.0697 20.5697 24.6666 19.8333 24.6666V26.6666C21.6743 26.6666 23.1666 25.1743 23.1666 23.3333H21.1666ZM19.8333 24.6666H8.16665V26.6666H19.8333V24.6666ZM8.16665 24.6666C7.43027 24.6666 6.83331 24.0697 6.83331 23.3333H4.83331C4.83331 25.1743 6.3257 26.6666 8.16665 26.6666V24.6666ZM6.83331 23.3333V6.99998H4.83331V23.3333H6.83331ZM10.3333 6.99998V4.66665H8.33331V6.99998H10.3333ZM10.3333 4.66665C10.3333 3.93027 10.9303 3.33331 11.6666 3.33331V1.33331C9.8257 1.33331 8.33331 2.8257 8.33331 4.66665H10.3333ZM11.6666 3.33331H16.3333V1.33331H11.6666V3.33331ZM16.3333 3.33331C17.0697 3.33331 17.6666 3.93027 17.6666 4.66665H19.6666C19.6666 2.8257 18.1743 1.33331 16.3333 1.33331V3.33331ZM17.6666 4.66665V6.99998H19.6666V4.66665H17.6666Z" fill="#ADB5BD"/>
<path d="M11.6667 12.8333V19.8333" stroke="#ADB5BD" stroke-width="2" stroke-linecap="round" stroke-linejoin="round"/>
<path d="M16.3333 12.8333V19.8333" stroke="#ADB5BD" stroke-width="2" stroke-linecap="round" stroke-linejoin="round"/>
</svg>
